<?xml version="1.0" standalone="no"?>
<!DOCTYPE svg PUBLIC "-//W3C//DTD SVG 1.1//EN" "http://www.w3.org/Graphics/SVG/1.1/DTD/svg11.dtd" >
<svg xmlns="http://www.w3.org/2000/svg">
<metadata></metadata>
<defs>
<font id="newslabregular" horiz-adv-x="948" >
<font-face units-per-em="2048" ascent="1536" descent="-512" />
<missing-glyph horiz-adv-x="479" />
<glyph horiz-adv-x="0" />
<glyph unicode="&#xd;" horiz-adv-x="2048" />
<glyph unicode=" "  horiz-adv-x="479" />
<glyph unicode="&#x09;" horiz-adv-x="479" />
<glyph unicode="&#xa0;" horiz-adv-x="479" />
<glyph unicode="!" horiz-adv-x="530" d="M154 96q0 44 33 77.5t77 33.5q45 0 78 -33t33 -78q0 -46 -32.5 -78t-78.5 -32q-45 0 -77.5 32.5t-32.5 77.5zM172 1528h186l-24 -1172h-137z" />
<glyph unicode="&#x22;" horiz-adv-x="657" d="M121 1544h145l-10 -387h-123zM391 1544h146l-13 -387h-121z" />
<glyph unicode="#" horiz-adv-x="1292" d="M72 371v141h229l88 350h-184v142h219l106 417h160l-106 -417h272l107 417h159l-106 -417h205v-142h-240l-88 -350h194v-141h-231l-92 -371h-160l92 371h-272l-92 -371h-160l92 371h-192zM461 512h272l88 350h-272z" />
<glyph unicode="$" horiz-adv-x="1185" d="M92 1044q0 69 27.5 132.5t79.5 115.5t135.5 86t187.5 41v164h135v-166q193 -17 296.5 -112.5t103.5 -241.5v-82h-174v49q0 103 -73 169.5t-230 66.5q-140 0 -224 -60t-84 -157q0 -56 28.5 -98t76 -69.5t110 -49t131 -41t137 -41t131 -53.5t110 -73.5t76 -106.5t28.5 -148 q0 -157 -111 -262t-332 -119v-168h-135v168q-107 7 -190 39.5t-132.5 81.5t-74.5 108t-25 125l2 86h177v-51q0 -108 84 -172t223 -64q334 0 334 213q0 59 -28.5 104.5t-76 74.5t-110 52t-131 42.5t-137 41t-131 53t-110 72.5t-76 104.5t-28.5 145.5z" />
<glyph unicode="%" horiz-adv-x="1607" d="M70 1055q0 178 80.5 272t220.5 94q141 0 222 -94t81 -272t-81 -270.5t-222 -92.5q-140 0 -220.5 93t-80.5 270zM213 1055q0 -232 158 -232q159 0 159 232q0 121 -43 179t-116 58t-115.5 -58t-42.5 -179zM328 2l874 1530l115 -68l-877 -1530zM932 348q0 178 80.5 272.5 t220.5 94.5q141 0 222 -94.5t81 -272.5t-81 -270t-222 -92q-140 0 -220.5 92.5t-80.5 269.5zM1075 348q0 -231 158 -231q160 0 160 231q0 121 -43.5 179.5t-116.5 58.5t-115.5 -58.5t-42.5 -179.5z" />
<glyph unicode="&#x26;" horiz-adv-x="1361" d="M84 379q0 71 22 132t53.5 101t74.5 73t76 49.5t67 29.5q-137 175 -137 323q0 155 103.5 244.5t258.5 89.5q68 0 130.5 -19t114.5 -56.5t83 -101.5t31 -146q0 -75 -27.5 -138t-66 -102t-89 -69t-86 -43t-67.5 -21l327 -365q45 85 45 189v158h293v-144h-131 q-3 -185 -96 -327l213 -236h-223l-101 113q-158 -127 -374 -127q-122 0 -219 33.5t-155.5 90t-89 125.5t-30.5 144zM264 387q0 -110 91 -177t225 -67q154 0 266 88l-369 420q-34 -12 -64.5 -28.5t-67.5 -47t-59 -79.5t-22 -109zM420 1085q0 -18 2 -35.5t7.5 -35t10.5 -31.5 t14.5 -32t14.5 -28t17 -27.5t16 -24t16 -23.5t14 -19q24 3 48.5 9.5t63 25t66.5 44.5t49 73t21 106q0 73 -45 126t-125 53q-88 0 -139 -49t-51 -132z" />
<glyph unicode="'" horiz-adv-x="387" d="M121 1544h145l-10 -387h-123z" />
<glyph unicode="(" horiz-adv-x="729" d="M80 487q0 139 23.5 267t60.5 224.5t89 183t101.5 145.5t105 109.5t93 77t72.5 46.5l73 -102q-28 -22 -56.5 -47t-75 -75t-87 -105t-84.5 -135t-75 -165t-51.5 -196t-20.5 -228t20.5 -228t51.5 -196t75 -165t84.5 -134.5t87 -104.5t75 -75t56.5 -47l-73 -102 q-35 20 -72.5 46.5t-93 77t-105 109.5t-101.5 145.5t-89 182.5t-60.5 224t-23.5 267z" />
<glyph unicode=")" horiz-adv-x="729" d="M31 -463q42 33 85.5 73.5t113.5 130t121 188.5t89.5 248t38.5 310t-38.5 310t-89.5 248.5t-121 189t-113.5 130t-85.5 73.5l73 102q35 -20 72.5 -46.5t93 -77t105 -109.5t101.5 -145.5t89 -183t60.5 -224.5t23.5 -267t-23.5 -267t-60.5 -224t-89 -182.5t-101.5 -145.5 t-105 -109.5t-93 -77t-72.5 -46.5z" />
<glyph unicode="*" horiz-adv-x="825" d="M106 1278l52 88l194 -104l4 233h105l10 -233l195 104l51 -88l-209 -129l149 -188l-79 -68l-166 186l-166 -186l-78 68l147 188z" />
<glyph unicode="+" horiz-adv-x="1110" d="M90 582v141h395v430h162v-430h375v-141h-375v-430h-162v430h-395z" />
<glyph unicode="," horiz-adv-x="473" d="M121 86q0 43 31 71.5t75 28.5q55 0 89 -39t34 -108q0 -63 -16 -112t-43 -79t-52.5 -46.5t-54.5 -26.5l-22 59q29 9 61.5 46.5t32.5 96.5l-4 19q-10 -10 -37 -10q-40 0 -67 28t-27 72z" />
<glyph unicode="-" d="M129 518v160h690v-160h-690z" />
<glyph unicode="." horiz-adv-x="446" d="M113 96q0 44 33 77.5t77 33.5q45 0 78 -33t33 -78q0 -46 -32.5 -78t-78.5 -32q-45 0 -77.5 32.5t-32.5 77.5z" />
<glyph unicode="/" horiz-adv-x="794" d="M53 -162l537 1804l151 -45l-536 -1804z" />
<glyph unicode="0" horiz-adv-x="1355" d="M102 694q0 361 153 544t423 183t422.5 -183t152.5 -544q0 -353 -152 -530.5t-423 -177.5t-423.5 177.5t-152.5 530.5zM283 694q0 -553 395 -553t395 553q0 296 -105.5 434t-289.5 138t-289.5 -138t-105.5 -434z" />
<glyph unicode="1" horiz-adv-x="995" d="M76 1128l424 281h141v-1264h324v-145h-856v145h358v1045l-315 -170z" />
<glyph unicode="2" horiz-adv-x="1208" d="M90 936v74q0 62 18 120.5t57 111.5t95.5 92.5t139.5 63t184 23.5q249 0 377.5 -124t128.5 -328q0 -107 -37 -210.5t-96.5 -183t-131.5 -150.5t-144 -120.5t-131.5 -86t-96.5 -54.5l-37 -17h698l2 -147h-995v127q16 7 44.5 21t110.5 60t156.5 96t165.5 126.5t156 154 t110 176t45 195.5q0 141 -85.5 225.5t-235.5 84.5q-158 0 -238 -81t-80 -208v-41h-180z" />
<glyph unicode="3" horiz-adv-x="1216" d="M76 227l94 115q175 -201 410 -201q172 0 264 72t92 197q0 103 -75.5 166t-227.5 63h-164v152h147q43 0 87 10.5t90 34.5t75 73.5t29 118.5q0 105 -76.5 171.5t-234.5 66.5q-73 0 -129.5 -21t-87.5 -55.5t-46.5 -74t-15.5 -81.5v-33h-168v72q0 153 125 250.5t330 97.5 q126 0 222 -32.5t151.5 -88t82.5 -122t27 -140.5q0 -49 -12 -92.5t-31.5 -74t-43 -55t-47.5 -39.5t-43.5 -25.5t-31.5 -14.5l-12 -4v-8q11 -2 28.5 -6.5t62 -26.5t79 -54t62.5 -94t28 -141q0 -190 -143.5 -303.5t-392.5 -113.5q-54 0 -104 7t-91.5 20t-77.5 28t-66.5 35.5 t-53 37t-43.5 37.5t-31.5 32.5t-23.5 27.5z" />
<glyph unicode="4" horiz-adv-x="1173" d="M53 365v139l652 905h221v-897h178v-147h-178v-365h-174v365h-699zM242 512h510v702z" />
<glyph unicode="5" horiz-adv-x="1198" d="M61 217l107 119q12 -15 26.5 -30.5t54 -47.5t83 -55t111 -41.5t139.5 -18.5q167 0 260.5 79.5t93.5 234.5q0 130 -91.5 208t-269.5 78q-79 0 -157.5 -22t-117.5 -44l-38 -22l-96 41l65 713h824v-147h-674l-39 -433q11 8 32 20t89 32t141 20q234 0 370 -121t136 -325 q0 -218 -139.5 -343.5t-388.5 -125.5q-61 0 -118.5 9t-101.5 22.5t-86 34t-70 38.5t-56.5 41.5t-42 37t-29.5 31.5z" />
<glyph unicode="6" horiz-adv-x="1251" d="M102 696q0 364 160.5 544.5t439.5 180.5q79 0 151.5 -16.5t121.5 -41t74 -40.5t38 -27l-90 -131q-8 8 -28 21.5t-57 33t-93 33t-117 13.5q-399 0 -419 -521q24 20 55.5 39t82 41t123 35.5t154.5 13.5q229 0 353.5 -120t124.5 -316q0 -198 -136.5 -325t-367.5 -127 q-128 0 -230.5 41t-179.5 125t-118.5 222t-41.5 322zM287 582q20 -225 120 -333t265 -108q156 0 242.5 83t86.5 216q0 119 -89 199t-240 80q-74 0 -142.5 -15.5t-117 -40.5t-77 -44t-48.5 -37z" />
<glyph unicode="7" horiz-adv-x="1089" d="M66 1030l6 379h993v-109l-524 -1302h-185l490 1204q7 18 16.5 33t15.5 21l5 6h-678v-232h-139z" />
<glyph unicode="8" horiz-adv-x="1230" d="M98 377q0 72 22.5 132t54 97t76 66.5t78 43.5t70.5 25q-118 50 -185 126.5t-67 201.5q0 68 28 129t83 111.5t148.5 80.5t214.5 31q118 0 209.5 -30t144.5 -80t79.5 -110.5t26.5 -127.5q0 -70 -26.5 -130.5t-68 -101t-88.5 -66.5t-93 -36v-4q114 -41 168 -74 q162 -102 162 -284q0 -177 -142.5 -284t-376.5 -107q-230 0 -374 105t-144 286zM276 393q0 -114 90.5 -183t247.5 -69q158 0 249 68t91 184q0 36 -11 67t-26 53.5t-44.5 44t-53 35t-66.5 30t-68.5 24.5t-74.5 23q-39 -6 -74 -14.5t-86 -30t-86.5 -49.5t-61.5 -76t-26 -107z M328 1061q0 -52 20 -94.5t49.5 -69t73 -47.5t78.5 -31.5t78 -19.5q116 26 195 92t79 168q0 88 -73.5 147.5t-215.5 59.5q-140 -1 -212 -59t-72 -146z" />
<glyph unicode="9" horiz-adv-x="1253" d="M78 969q0 198 136.5 325t367.5 127q128 0 230.5 -41t179 -125t118 -222t41.5 -322q0 -364 -160.5 -544.5t-439.5 -180.5q-79 0 -151.5 16.5t-121.5 41t-74 40.5t-38 27l90 131q8 -8 28 -21.5t57 -33t93 -33t117 -13.5q396 0 418 508q-158 -127 -414 -127 q-228 0 -352.5 123t-124.5 324zM252 967q0 -124 89.5 -206.5t240.5 -82.5q74 0 142.5 15.5t117 40.5t77 44t48.5 37q-20 229 -120 340t-265 111q-156 0 -243 -83t-87 -216z" />
<glyph unicode=":" horiz-adv-x="460" d="M119 96q0 44 33 77.5t77 33.5q45 0 78 -33t33 -78q0 -46 -32.5 -78t-78.5 -32q-45 0 -77.5 32.5t-32.5 77.5zM119 860q0 44 33 77.5t77 33.5q45 0 78 -33t33 -78q0 -46 -32.5 -78t-78.5 -32q-45 0 -77.5 32.5t-32.5 77.5z" />
<glyph unicode=";" horiz-adv-x="487" d="M127 860q0 44 33.5 77.5t77.5 33.5q45 0 77.5 -33t32.5 -78q0 -46 -32 -78t-78 -32q-45 0 -78 32.5t-33 77.5zM131 86q0 42 31 71t76 29q55 0 88.5 -39t33.5 -108q0 -63 -16 -112t-42.5 -79t-52 -46.5t-54.5 -26.5l-23 59q29 9 61.5 46.5t32.5 96.5l-4 19 q-10 -10 -37 -10q-40 0 -67 28t-27 72z" />
<glyph unicode="&#x3c;" horiz-adv-x="772" d="M109 717v90l452 420l109 -113l-361 -352l361 -352l-109 -113z" />
<glyph unicode="=" horiz-adv-x="1054" d="M147 186v160h760v-160h-760zM147 666v159h760v-159h-760z" />
<glyph unicode="&#x3e;" horiz-adv-x="772" d="M102 410l361 352l-361 352l109 113l453 -420v-90l-453 -420z" />
<glyph unicode="?" horiz-adv-x="1054" d="M68 1090v55q0 76 27 145t79.5 126.5t141 91.5t202.5 34q222 0 341.5 -121t119.5 -317q0 -90 -33.5 -171t-82 -135.5t-107.5 -96.5t-105.5 -63t-79.5 -28v-207h-151v306q48 0 99.5 15t101.5 48t89.5 78.5t64 112.5t24.5 145q0 128 -73.5 203t-203.5 75 q-139 0 -207.5 -77.5t-68.5 -202.5v-16h-178zM387 96q0 46 31.5 78.5t77.5 32.5t78 -32.5t32 -78.5q0 -47 -32 -78.5t-78 -31.5t-77.5 31.5t-31.5 78.5z" />
<glyph unicode="@" horiz-adv-x="2125" d="M80 528q0 156 41 301.5t124 271.5t199.5 220t277 147.5t347.5 53.5q195 0 357.5 -51.5t273 -139t187.5 -204.5t112 -247t35 -268q0 -128 -28.5 -233.5t-77.5 -177.5t-116 -121t-143 -71.5t-160 -22.5q-53 0 -92 14t-58 36.5t-27.5 44.5t-8.5 44v14h-6l-1 -2 q-49 -79 -152 -120q-78 -31 -175 -31q-90 0 -169 32.5t-139 93.5t-95 155t-35 210q0 229 127 361.5t321 132.5q62 0 117 -15t89.5 -36t60 -42t36.5 -36l11 -15h6l27 129h127v-743q0 -92 77 -92q148 0 232 115.5t84 359.5q0 127 -30 241.5t-93.5 213t-156 170t-225 112.5 t-292.5 41q-188 0 -344.5 -67.5t-259.5 -183.5t-160 -269.5t-57 -325.5q0 -122 26 -228t63.5 -181t98.5 -141.5t110 -106t121 -78t109.5 -54t95.5 -36.5l-92 -135q-163 68 -257 127q-443 280 -443 833zM719 477q0 -70 17.5 -128t47.5 -98t69.5 -68t83.5 -41t91 -13 q180 0 275 125v426q-36 69 -111 108t-162 39q-134 0 -222.5 -90t-88.5 -260z" />
<glyph unicode="A" horiz-adv-x="1501" d="M0 0v141h154l446 1129h-172v139h420l508 -1268h155v-141h-507v141h167q-59 148 -131 330h-579l-129 -330h168v-141h-500zM518 618h465l-195 506l-32 84h-17q-20 -74 -24 -84z" />
<glyph unicode="B" horiz-adv-x="1374" d="M88 0v139h182v1131h-182v139h625q242 0 362.5 -95.5t120.5 -269.5q0 -46 -9.5 -85.5t-22 -67t-35.5 -52.5t-38.5 -39t-42.5 -28.5t-37 -19t-32 -13.5v-8q32 -5 64.5 -13.5t79 -33t81 -58.5t59.5 -94.5t25 -136.5q0 -189 -131 -292t-399 -103h-670zM444 147h320 q344 0 344 256q0 117 -91.5 181.5t-250.5 64.5h-322v-502zM444 791h320q99 0 175.5 62t76.5 171q0 68 -24.5 117t-66.5 74t-87.5 36t-98.5 11h-295v-471z" />
<glyph unicode="C" horiz-adv-x="1353" d="M100 696q0 360 165.5 542.5t455.5 182.5q246 0 393.5 -126t147.5 -330v-72h-175v51q0 151 -102 236.5t-258 85.5q-208 0 -327 -137.5t-119 -434.5q0 -553 446 -553q352 0 352 297h176v-22q0 -199 -139 -314.5t-399 -115.5q-289 0 -453 178t-164 532z" />
<glyph unicode="D" horiz-adv-x="1495" d="M88 0v139h182v1131h-182v139h590q344 0 531.5 -175t187.5 -534q0 -182 -48.5 -317.5t-140 -218.5t-216.5 -123.5t-285 -40.5h-619zM444 147h234q280 0 409.5 138.5t129.5 414.5q0 277 -135 419.5t-431 142.5h-207v-1115z" />
<glyph unicode="E" horiz-adv-x="1284" d="M88 0v139h180v1131h-180v139h1088l6 -367h-140v220h-600v-476h502v-147h-502v-492h600v218h138l-9 -365h-1083z" />
<glyph unicode="F" horiz-adv-x="1239" d="M88 0v139h180v1131h-180v139h1088l6 -367h-140v220h-600v-476h502v-147h-502v-500h326v-139h-680z" />
<glyph unicode="G" horiz-adv-x="1370" d="M100 696q0 360 165.5 542.5t455.5 182.5q246 0 393.5 -125.5t147.5 -330.5v-72h-175v51q0 152 -101.5 237t-258.5 85q-208 0 -327 -137.5t-119 -434.5q0 -553 450 -553q356 0 356 334v55h-380v148h555v-201q0 -230 -140 -360.5t-401 -130.5q-142 0 -255.5 43.5 t-195.5 129.5t-126 222t-44 315z" />
<glyph unicode="H" horiz-adv-x="1656" d="M88 0v139h182v1129h-182v141h539v-141h-183v-500h768v500h-182v141h541v-141h-185v-1129h185v-139h-541v139h182v482h-768v-482h183v-139h-539z" />
<glyph unicode="I" horiz-adv-x="714" d="M88 0v139h182v1129h-182v141h539v-141h-183v-1129h183v-139h-539z" />
<glyph unicode="J" horiz-adv-x="698" d="M12 -328q134 42 196 128.5t62 248.5v1219h-184v141h543v-141h-183v-1235q0 -229 -107.5 -359.5t-275.5 -158.5z" />
<glyph unicode="K" horiz-adv-x="1488" d="M88 0v143h182v1123h-182v143h522v-143h-166v-523h275l366 523h-172v143h541v-143h-174l-406 -574l424 -553h146l-2 -139h-256l-465 598h-277v-455h201v-143h-557z" />
<glyph unicode="L" horiz-adv-x="1191" d="M88 0v139h182v1129h-182v141h537v-141h-181v-1121h568v242h137l-8 -389h-1053z" />
<glyph unicode="M" horiz-adv-x="1935" d="M66 0v139h180l67 1129h-184v141h418l323 -801q12 -28 35 -92.5t41 -115.5l17 -50h16q65 195 92 258l324 801h411v-141h-184l68 -1129h180v-139h-516v139h162l-64 994h-6l-402 -1022h-153l-402 1022h-6l-63 -994h162v-139h-516z" />
<glyph unicode="N" horiz-adv-x="1677" d="M88 0v139h182v1129h-182v141h367l788 -1155h8v1014h-182v141h539v-141h-183v-1268h-204l-770 1124h-7v-985h183v-139h-539z" />
<glyph unicode="O" horiz-adv-x="1445" d="M100 694q0 361 165 544t458 183t458 -183t165 -544q0 -353 -165 -530.5t-458 -177.5t-458 177.5t-165 530.5zM281 694q0 -553 442 -553t442 553q0 152 -32 263.5t-92 178t-139 98.5t-179 32t-179 -32t-139 -98.5t-92 -178t-32 -263.5z" />
<glyph unicode="P" horiz-adv-x="1277" d="M88 0v139h182v1129h-182v141h641q103 0 190.5 -28.5t152.5 -82.5t101.5 -138t36.5 -189q0 -218 -132 -332.5t-373 -114.5h-261v-385h226v-139h-582zM444 672h248q338 0 338 299q0 77 -27 134.5t-74 91t-106 49.5t-129 16h-250v-590z" />
<glyph unicode="Q" horiz-adv-x="1445" d="M100 694q0 361 165 544t458 183t458 -183t165 -544q0 -326 -142 -503t-397 -201q15 -104 100.5 -163.5t243.5 -88.5l-55 -154q-199 24 -321.5 141.5t-125.5 264.5q-261 21 -405 197t-144 507zM281 694q0 -553 442 -553t442 553q0 152 -32 263.5t-92 178t-139 98.5 t-179 32t-179 -32t-139 -98.5t-92 -178t-32 -263.5z" />
<glyph unicode="R" horiz-adv-x="1382" d="M88 0v139h182v1129h-182v141h674q139 0 247 -47.5t172 -145.5t64 -235q0 -174 -83.5 -277t-223.5 -139v-8q23 -18 35 -43l213 -375h151v-139h-268l-295 530h-330v-391h228v-139h-584zM444 678h301q156 0 238 69t82 226q0 76 -27 133t-74.5 90.5t-107.5 49.5t-131 16h-281 v-584z" />
<glyph unicode="S" horiz-adv-x="1196" d="M100 1044q0 74 31 141t90 120t153 84.5t212 31.5q231 0 355 -98t124 -260v-82h-174v49q0 103 -73 169.5t-230 66.5q-140 0 -223.5 -60t-83.5 -157q0 -56 28.5 -98t76 -69.5t109.5 -49t130.5 -41t137.5 -41t131 -53.5t109.5 -73.5t76 -106.5t28.5 -148q0 -80 -30 -148 t-90 -121.5t-160 -83.5t-230 -30q-124 0 -220.5 29.5t-153.5 80.5t-86 113.5t-29 132.5l2 86h176v-51q0 -108 84 -172t223 -64q334 0 334 213q0 59 -28.5 104.5t-76 74.5t-110 52t-131 42.5t-137 41t-131 53t-110 72.5t-76 104.5t-28.5 145.5z" />
<glyph unicode="T" horiz-adv-x="1341" d="M43 1042l6 367h1241l6 -367h-137v220h-401v-1123h184v-139h-541v139h183v1123h-402v-220h-139z" />
<glyph unicode="U" horiz-adv-x="1552" d="M55 1268v141h541v-141h-184v-738q0 -389 366 -389q189 0 278 100.5t89 278.5v748h-182v141h536v-141h-184v-740q0 -268 -137 -405t-400 -137q-264 0 -402 137t-138 405v740h-183z" />
<glyph unicode="V" horiz-adv-x="1511" d="M-4 1268v141h516v-141h-168q367 -938 381 -983l27 -84h16l25 84q6 20 102 265.5t189 481.5l92 236h-168v141h508v-141h-154l-510 -1268h-193l-507 1268h-156z" />
<glyph unicode="W" horiz-adv-x="2088" d="M0 1268v141h516v-141h-166q273 -938 285 -983l22 -84h17l16 84q4 21 75 302t141 551l69 271h147q269 -1077 277 -1124l16 -84h17l22 84l291 983h-166v141h510v-141h-158l-407 -1268h-213l-252 1059q-8 32 -8 55h-13q0 -23 -8 -55l-260 -1059h-211l-401 1268h-158z" />
<glyph unicode="X" horiz-adv-x="1519" d="M39 0v139h176l432 557l-432 572h-176v141h545v-141h-174l352 -471l348 471h-172v141h543v-141h-176l-435 -572l433 -557h178v-139h-543v139h170l-350 453l-348 -453h172v-139h-543z" />
<glyph unicode="Y" horiz-adv-x="1396" d="M0 1268v141h520v-141h-164l336 -572h17l344 572h-168v141h514v-141h-160l-453 -727v-402h187v-139h-547v139h184v402l-452 727h-158z" />
<glyph unicode="Z" horiz-adv-x="1294" d="M98 0v131l875 1131h-737v-220h-136l4 367h1092v-131l-874 -1131h737v220h137l-6 -367h-1092z" />
<glyph unicode="[" horiz-adv-x="694" d="M174 -594v2161h467v-150h-295v-1859h295v-152h-467z" />
<glyph unicode="\" horiz-adv-x="794" d="M53 1597l152 45l536 -1804l-151 -45z" />
<glyph unicode="]" horiz-adv-x="696" d="M55 -442h295v1859h-295v150h465v-2161h-465v152z" />
<glyph unicode="^" horiz-adv-x="841" d="M106 1161l209 385h209l211 -385h-135l-180 244l-178 -244h-136z" />
<glyph unicode="_" horiz-adv-x="1110" d="M127 -41h856v-160h-856v160z" />
<glyph unicode="`" horiz-adv-x="514" d="M57 1473h222l190 -375h-133z" />
<glyph unicode="a" horiz-adv-x="1093" d="M82 264q0 134 116 204.5t324 70.5h232v73q0 113 -65 166t-195 53q-115 0 -177.5 -49t-62.5 -127v-18h-154v47q0 42 14.5 82.5t46 77.5t77 65t113.5 45t149 17q201 0 312.5 -91.5t111.5 -275.5v-465h112v-139h-239l-21 158h-4q-3 -7 -10 -18.5t-36 -41t-65.5 -52.5 t-103 -41.5t-145.5 -18.5q-147 0 -238.5 78.5t-91.5 199.5zM250 264q0 -67 56 -106t147 -39q58 0 110.5 16t85.5 38.5t58 45.5t36 39l11 16v146h-217q-129 0 -208 -39.5t-79 -116.5z" />
<glyph unicode="b" horiz-adv-x="1167" d="M20 1389v139h310v-613l-8 -71h6l1 1q52 68 156 103q72 23 158 23q90 0 169 -33t139 -94t95 -155t35 -210q0 -238 -121 -365.5t-315 -127.5q-65 0 -122 16t-93 38.5t-62.5 45.5t-37.5 39l-11 16h-6l-26 -141h-127v1389h-140zM330 274q36 -69 110.5 -107t161.5 -38 q134 0 222.5 90t88.5 260q0 70 -17.5 128t-47.5 98t-69.5 68t-83.5 41t-91 13q-58 0 -107.5 -13t-82 -35t-52 -40.5t-32.5 -38.5v-426z" />
<glyph unicode="c" horiz-adv-x="1050" d="M86 479q0 244 126 368t353 124q109 0 190 -28t127.5 -77.5t68.5 -108.5t22 -128v-54h-154v31q0 106 -63 163.5t-193 57.5q-148 0 -228.5 -81.5t-80.5 -266.5q0 -171 95.5 -260.5t238.5 -89.5q62 0 116.5 10.5t88 25.5t58.5 30t35 25l11 11l59 -122q-4 -5 -13 -13.5 t-42.5 -29.5t-73.5 -37t-108 -29.5t-144 -13.5q-222 0 -355.5 129.5t-133.5 363.5z" />
<glyph unicode="d" horiz-adv-x="1200" d="M86 479q0 229 126 360.5t314 131.5q68 0 125.5 -13t91 -31t57 -37.5t32 -31.5t8.5 -14h6q-8 63 -8 71v474h-146v139h316v-1389h139v-139h-266l-25 141h-8q-4 -6 -11.5 -16.5t-36 -37.5t-62.5 -47t-91.5 -37t-122.5 -17q-195 0 -316.5 127.5t-121.5 365.5zM254 479 q0 -170 88.5 -260t224.5 -90q86 0 160.5 38.5t110.5 106.5v426q-90 127 -273 127q-59 0 -113 -21t-99 -62t-72 -109.5t-27 -155.5z" />
<glyph unicode="e" horiz-adv-x="1067" d="M84 479q0 233 133.5 362.5t349.5 129.5q124 0 221.5 -61t149 -161t51.5 -219q0 -27 -2.5 -52.5t-4.5 -37.5l-3 -12h-725q14 -148 107 -223.5t229 -75.5q61 0 115 10.5t87.5 25.5t58 30t34.5 25l10 11l61 -122q-5 -5 -14 -13.5t-43 -29.5t-74.5 -37t-109 -29.5 t-144.5 -13.5q-218 0 -352.5 129.5t-134.5 363.5zM252 553h579q-2 70 -26 124.5t-61.5 86t-82 47.5t-92.5 16q-128 0 -216.5 -72t-100.5 -202z" />
<glyph unicode="f" horiz-adv-x="731" d="M74 821v135h143v238q0 173 85.5 262.5t244.5 89.5q46 0 88.5 -8t62.5 -16l19 -9v-143q-54 31 -144 31t-138 -52.5t-48 -156.5v-236h305v-135h-305v-682h211v-139h-520v139h139v682h-143z" />
<glyph unicode="g" horiz-adv-x="1202" d="M88 477q0 238 121 366t315 128q65 0 122 -16.5t93 -39.5t62.5 -46t37.5 -39l11 -17h6l27 143h266v-139h-139v-903q0 -128 -39 -224.5t-108.5 -154.5t-159 -86.5t-197.5 -28.5q-80 0 -152 15.5t-116.5 38t-78 45t-47.5 37.5l-14 16l74 117q4 -5 11 -13.5t35 -30t62.5 -38 t94 -30t127.5 -13.5q73 0 133 19t108 59t74.5 109t26.5 163v199h-2l-1 -1q-52 -68 -156 -102q-72 -24 -159 -24q-90 0 -169 32.5t-139 93.5t-95 155t-35 210zM256 477q0 -70 17.5 -128t47.5 -98t69.5 -68t83.5 -41t91 -13q180 0 275 125v426q-36 69 -111 108t-162 39 q-134 0 -222.5 -90t-88.5 -260z" />
<glyph unicode="h" horiz-adv-x="1220" d="M55 1389v139h310v-557l-11 -172h6q2 7 7 18.5t28 41t55 52.5t93 41.5t137 18.5q180 0 271 -102t91 -271v-459h140v-139h-310v571q0 254 -237 254q-46 0 -85.5 -11t-66 -28.5t-48 -39t-34 -43t-20.5 -39t-11 -28.5l-3 -11v-486h133v-139h-443v139h140v1250h-142z" />
<glyph unicode="i" horiz-adv-x="587" d="M82 0v139h139v678h-139v139h309v-817h133v-139h-442zM170 1335q0 54 37.5 91.5t91.5 37.5t92.5 -37.5t38.5 -91.5q0 -55 -38.5 -93t-92.5 -38t-91.5 38t-37.5 93z" />
<glyph unicode="j" horiz-adv-x="532" d="M-14 -422q106 40 161.5 101t55.5 163v975h-140v139h310v-1144q0 -78 -27.5 -145t-75 -114.5t-105.5 -80t-124 -50.5zM154 1335q0 54 37.5 91.5t91.5 37.5t92.5 -37.5t38.5 -91.5q0 -55 -38.5 -93t-92.5 -38t-91.5 38t-37.5 93z" />
<glyph unicode="k" horiz-adv-x="1193" d="M55 0v139h142v1250h-142v139h312v-967h227l217 260h-117v135h445v-135h-144l-270 -327l279 -359h147v-135h-244l-325 428h-215v-289h133v-139h-445z" />
<glyph unicode="l" horiz-adv-x="567" d="M61 0v139h140v1250h-140v139h310v-1389h133v-139h-443z" />
<glyph unicode="m" horiz-adv-x="1884" d="M76 0v139h139v678h-139v139h268l16 -180h7q2 8 7 21t29.5 46.5t57.5 59.5t96.5 47t142.5 21q235 0 322 -178q7 17 17.5 35t36.5 45t60 47.5t90.5 35.5t123.5 15q179 0 269.5 -102t90.5 -271v-459h139v-139h-309v571q0 256 -237 256q-173 0 -248 -147q6 -41 6 -82v-459 h139v-139h-309v571q0 256 -238 256q-46 0 -85.5 -11t-66 -29t-48 -39.5t-34 -43t-20.5 -39.5t-11 -29l-3 -11v-486h133v-139h-442z" />
<glyph unicode="n" horiz-adv-x="1236" d="M76 0v139h139v678h-139v139h268l16 -180h7q2 8 7 21t29.5 46.5t57.5 59.5t96.5 47t142.5 21q179 0 270 -102t91 -271v-459h139v-139h-309v571q0 256 -238 256q-46 0 -85.5 -11t-66 -28.5t-48 -39t-34 -43t-20.5 -39t-11 -28.5l-3 -11v-488h133v-139h-442z" />
<glyph unicode="o" horiz-adv-x="1128" d="M84 479q0 232 135 362t346 130q210 0 344.5 -130t134.5 -362q0 -234 -131 -363.5t-348 -129.5t-349 129.5t-132 363.5zM252 479q0 -87 25.5 -155.5t69 -110t99 -63t119.5 -21.5q63 0 118 21.5t99 63t69.5 110t25.5 155.5q0 86 -27.5 155t-72.5 110t-99.5 62t-112.5 21 q-47 0 -91 -13t-84.5 -41t-71 -68t-48.5 -98t-18 -128z" />
<glyph unicode="p" horiz-adv-x="1202" d="M53 -430h142v1247h-142v139h266l27 -143h6q4 6 11.5 17t36.5 38t63.5 48t92 38t122.5 17q94 0 173 -31.5t138.5 -92t93 -155.5t33.5 -215q0 -116 -35 -210t-95.5 -155t-140 -93.5t-169.5 -32.5q-62 0 -116.5 12.5t-86.5 27.5t-60.5 37t-36.5 30.5t-15 18.5l-1 1h-4 q6 -64 6 -72v-492h170v-118h-479v139zM365 252q83 -123 272 -123q59 0 113 21t99 62t72 109.5t27 155.5q0 170 -88.5 260t-224.5 90q-86 0 -160 -38t-110 -105v-432z" />
<glyph unicode="q" horiz-adv-x="1169" d="M88 477q0 238 121 366t315 128q65 0 122 -16t93 -39t62.5 -46t37.5 -39l11 -16h6l27 141h127v-1386h139v-139h-481v139h172v471l8 72h-6l-1 -1q-52 -68 -156 -102q-72 -24 -159 -24q-90 0 -169 32.5t-139 93.5t-95 155t-35 210zM256 477q0 -70 17.5 -128t47.5 -98 t69.5 -68t83.5 -41t91 -13q180 0 275 125v426q-36 69 -111 108t-162 39q-134 0 -222.5 -90t-88.5 -260z" />
<glyph unicode="r" horiz-adv-x="806" d="M76 0v139h139v678h-139v139h268l16 -241h7q1 5 3.5 14.5t12.5 36t23.5 50.5t39 53.5t55.5 51t76 36t99 14.5q46 0 104 -10v-160q-47 14 -108 14q-63 0 -115.5 -26.5t-82 -61t-51 -77.5t-29 -67t-9.5 -38v-406h158v-139h-467z" />
<glyph unicode="s" horiz-adv-x="978" d="M82 252v61h158v-22q0 -74 62 -120t183 -46q242 0 242 141q0 33 -20 58t-60 42t-79 27t-99 21q-44 8 -74 14.5t-72 19t-70 26t-58.5 35t-48.5 48t-30 63t-12 80.5q0 121 104 196t271 75q203 0 297 -73t94 -191v-70h-157v43q0 154 -228 154q-88 0 -150.5 -35.5 t-62.5 -102.5q0 -47 40 -78.5t78.5 -42t124.5 -26.5l30 -6q61 -12 106 -24.5t94 -35t79.5 -50.5t50.5 -72t20 -99q0 -124 -99.5 -200t-306.5 -76q-108 0 -189 22t-127 60.5t-68.5 84.5t-22.5 99z" />
<glyph unicode="t" horiz-adv-x="718" d="M41 821v135h143l29 258h141v-258h303v-135h-303v-493q0 -97 41 -147t117 -50q48 0 91 7.5t62 15.5l19 8v-144q-80 -32 -201 -32q-146 0 -222.5 83.5t-76.5 247.5v504h-143z" />
<glyph unicode="u" horiz-adv-x="1218" d="M39 817v139h309v-571q0 -256 238 -256q63 0 114 21t78 50.5t45.5 59.5t24.5 51l6 21v485h-133v139h303v-817h139v-139h-268l-18 190h-5q-2 -8 -7 -22t-29.5 -49t-57.5 -62t-96.5 -49t-142.5 -22q-179 0 -270 101.5t-91 270.5v459h-139z" />
<glyph unicode="v" horiz-adv-x="1175" d="M14 817v139h428v-139h-112l254 -637h12l256 637h-117v139h426v-139h-139l-336 -817h-197l-335 817h-140z" />
<glyph unicode="w" horiz-adv-x="1630" d="M16 817v139h426v-139h-112l190 -637h12l205 776h158l209 -776h10l191 637h-115v139h424v-139h-139l-267 -817h-196l-193 721h-10l-191 -721h-196l-266 817h-140z" />
<glyph unicode="x" horiz-adv-x="1142" d="M47 0v139h119l303 340l-293 338h-129v139h434v-139h-106l200 -233l205 233h-106v139h424v-139h-129l-293 -334l303 -344h119v-139h-436v139h116l-211 242l-211 -242h117v-139h-426z" />
<glyph unicode="y" horiz-adv-x="1171" d="M12 817v139h428v-139h-112l254 -637h12l256 637h-117v139h426v-139h-139l-344 -846q-30 -77 -77 -152t-115 -150.5t-166 -139.5t-212 -104l-55 149q157 56 283 167t182 239l12 32h-41l-335 805h-140z" />
<glyph unicode="z" horiz-adv-x="1079" d="M98 0v145l672 676h-502v-174h-170v309h885v-125l-682 -696h512v176h170v-311h-885z" />
<glyph unicode="{" horiz-adv-x="653" d="M49 426v119h25q46 0 95.5 65t49.5 172v461q0 72 18.5 128.5t49.5 93t75.5 60t93.5 33t107 9.5h29v-150h-29q-90 0 -131 -41t-41 -135v-457q0 -51 -13.5 -97.5t-33.5 -76t-39.5 -52t-32.5 -32.5l-14 -10v-63q5 -3 14 -10t32 -31.5t40.5 -53t32 -75t14.5 -97.5v-452 q0 -94 40.5 -133t131.5 -39h29v-150h-29q-73 0 -132 15.5t-108.5 51t-76.5 99.5t-27 154v456q0 104 -50 171t-95 67h-25z" />
<glyph unicode="|" horiz-adv-x="497" d="M166 -586v2142h162v-2142h-162z" />
<glyph unicode="}" horiz-adv-x="653" d="M61 -438h27q92 0 133 39t41 133v452q0 51 13.5 97t33 76t39.5 52t34 32l13 10v63q-5 4 -14 10.5t-32 31.5t-40.5 53t-32 75t-14.5 98v457q0 94 -41 135t-133 41h-27v150h27q74 0 133.5 -16.5t108.5 -52t76.5 -100.5t27.5 -155v-461q0 -107 49.5 -172t96.5 -65h22v-119 h-22q-46 0 -96 -66.5t-50 -171.5v-456q0 -320 -346 -320h-27v150z" />
<glyph unicode="~" horiz-adv-x="1021" d="M133 967q57 161 207 161q57 0 116.5 -22t114 -44t99.5 -22q38 0 66.5 17.5t64.5 58.5l88 -57q-25 -71 -75.5 -116.5t-131.5 -45.5q-55 0 -116 22t-116.5 44t-97.5 22q-38 0 -66.5 -17.5t-64.5 -58.5z" />
<glyph unicode="&#xa2;" horiz-adv-x="1101" d="M100 664q0 224 110.5 346.5t311.5 140.5v152h135v-152q91 -8 159.5 -39.5t107.5 -78.5t58 -102t19 -118v-76h-153v51q0 109 -64.5 169.5t-199.5 60.5q-316 0 -316 -354q0 -171 98 -264t244 -93q63 0 118.5 11t90.5 27.5t60.5 32.5t36.5 27l10 11l61 -123q-4 -4 -12 -11.5 t-38 -26.5t-65 -34t-93 -30t-122 -19v-174h-135v176q-193 21 -307.5 148.5t-114.5 341.5z" />
<glyph unicode="&#xa3;" horiz-adv-x="1251" d="M100 0v125q25 10 57.5 30t76.5 53.5t79.5 85t48.5 107.5h-249v138h243q-15 42 -51.5 97.5t-69.5 99.5t-59 110.5t-26 136.5q0 201 136.5 319.5t368.5 118.5q220 0 352 -108t132 -287v-59h-176v34q0 119 -85.5 192t-230.5 73q-66 0 -121 -16.5t-100 -50.5t-70.5 -92.5 t-25.5 -137.5q0 -58 26.5 -118t60 -104t70.5 -102t52 -106h395v-138h-389q-18 -81 -72.5 -154.5t-120.5 -111.5h797v-135h-1049z" />
<glyph unicode="&#xa5;" horiz-adv-x="1511" d="M57 1268v141h521v-141h-164l336 -572h16l344 572h-168v141h514v-141h-160l-286 -461h188v-137h-274l-80 -129v-25h286v-137h-286v-240h186v-139h-547v139h185v240h-297v137h297v25l-80 129h-281v137h195l-287 461h-158z" />
<glyph unicode="&#xa9;" horiz-adv-x="1421" d="M102 713q0 162 83 302.5t223.5 223t302.5 82.5q121 0 233.5 -49t194.5 -131t131 -194.5t49 -233.5q0 -162 -82.5 -302.5t-223 -223.5t-302.5 -83t-302.5 83t-223.5 223.5t-83 302.5zM174 713q0 -146 72 -269.5t195.5 -195.5t269.5 -72t269.5 72t195 195.5t71.5 269.5 t-71.5 269.5t-195 195t-269.5 71.5t-269.5 -71.5t-195.5 -195t-72 -269.5zM367 719q0 164 101 262t245 98q55 0 103.5 -14t78.5 -33t55.5 -45.5t36.5 -43t19 -32.5l-86 -59q-17 29 -35.5 50t-64.5 42t-107 21q-93 0 -158.5 -63t-65.5 -181q0 -120 66 -184t164 -64 q49 0 85.5 10t60.5 31.5t33 32.5t24 35l84 -56q-9 -17 -19.5 -33t-35.5 -42.5t-55 -45t-78.5 -33t-104.5 -14.5q-144 0 -245 98.5t-101 262.5z" />
<glyph unicode="&#xad;" d="M129 518v160h690v-160h-690z" />
<glyph unicode="&#xae;" horiz-adv-x="1421" d="M102 713q0 162 83 302.5t223.5 223t302.5 82.5q121 0 233.5 -49t194.5 -131t131 -194.5t49 -233.5q0 -162 -82.5 -302.5t-223 -223.5t-302.5 -83t-302.5 83t-223.5 223.5t-83 302.5zM174 713q0 -146 72 -269.5t195.5 -195.5t269.5 -72t269.5 72t195 195.5t71.5 269.5 t-71.5 269.5t-195 195t-269.5 71.5t-269.5 -71.5t-195.5 -195t-72 -269.5zM432 387v88h76v494h-76v88h279q111 0 179 -51.5t68 -153.5q0 -144 -139 -180q7 -8 37 -62l72 -135h73v-88h-133l-143 272h-121v-184h88v-88h-260zM604 733h107q71 0 107 29t36 82q0 58 -38.5 90.5 t-104.5 32.5h-107v-234z" />
<glyph unicode="&#xb4;" horiz-adv-x="595" d="M102 1098l193 375h219l-276 -375h-136z" />
<glyph unicode="&#x2000;" horiz-adv-x="821" />
<glyph unicode="&#x2001;" horiz-adv-x="1642" />
<glyph unicode="&#x2002;" horiz-adv-x="821" />
<glyph unicode="&#x2003;" horiz-adv-x="1642" />
<glyph unicode="&#x2004;" horiz-adv-x="547" />
<glyph unicode="&#x2005;" horiz-adv-x="410" />
<glyph unicode="&#x2006;" horiz-adv-x="273" />
<glyph unicode="&#x2007;" horiz-adv-x="273" />
<glyph unicode="&#x2008;" horiz-adv-x="205" />
<glyph unicode="&#x2009;" horiz-adv-x="328" />
<glyph unicode="&#x200a;" horiz-adv-x="91" />
<glyph unicode="&#x2010;" d="M129 518v160h690v-160h-690z" />
<glyph unicode="&#x2011;" d="M129 518v160h690v-160h-690z" />
<glyph unicode="&#x2012;" d="M129 518v160h690v-160h-690z" />
<glyph unicode="&#x2013;" horiz-adv-x="1157" d="M129 518v160h899v-160h-899z" />
<glyph unicode="&#x2014;" horiz-adv-x="1794" d="M129 518v160h1536v-160h-1536z" />
<glyph unicode="&#x2018;" horiz-adv-x="417" d="M94 1362q0 63 16 112t43 79t52.5 46.5t54.5 26.5l23 -59q-29 -9 -62 -47t-33 -97l5 -18q9 10 36 10q40 0 67.5 -28t27.5 -72q0 -43 -31.5 -72t-75.5 -29q-55 0 -89 39.5t-34 108.5z" />
<glyph unicode="&#x2019;" horiz-adv-x="419" d="M98 1427q0 43 31.5 72t75.5 29q55 0 89 -39.5t34 -108.5q0 -63 -16 -112t-43 -79t-52.5 -46.5t-54.5 -26.5l-23 60q29 9 61.5 46.5t32.5 96.5l-4 18q-9 -10 -36 -10q-40 0 -67.5 28t-27.5 72z" />
<glyph unicode="&#x201c;" horiz-adv-x="753" d="M94 1362q0 63 16 112t43 79t52.5 46.5t54.5 26.5l23 -59q-29 -9 -62 -47t-33 -97l5 -18q9 10 36 10q40 0 67.5 -28t27.5 -72q0 -43 -31.5 -72t-75.5 -29q-55 0 -89 39.5t-34 108.5zM432 1362q0 63 16 112t43 79t52.5 46.5t54.5 26.5l23 -59q-29 -9 -62 -47t-33 -97l4 -18 q10 10 37 10q40 0 67.5 -28t27.5 -72q0 -43 -31.5 -72t-75.5 -29q-55 0 -89 39.5t-34 108.5z" />
<glyph unicode="&#x201d;" horiz-adv-x="735" d="M98 1427q0 43 31.5 72t75.5 29q55 0 89 -39.5t34 -108.5q0 -63 -16 -112t-43 -79t-52.5 -46.5t-54.5 -26.5l-23 60q29 9 61.5 46.5t32.5 96.5l-4 18q-9 -10 -36 -10q-40 0 -67.5 28t-27.5 72zM414 1427q0 43 31 72t75 29q55 0 89 -39.5t34 -108.5q0 -63 -16 -112t-43 -79 t-52.5 -46.5t-54.5 -26.5l-22 60q29 9 61.5 46.5t32.5 96.5l-4 18q-10 -10 -37 -10q-40 0 -67 28t-27 72z" />
<glyph unicode="&#x2022;" horiz-adv-x="727" d="M160 686q0 96 53 153.5t149 57.5q93 0 150 -58.5t57 -152.5q0 -96 -56.5 -152.5t-150.5 -56.5q-97 0 -149.5 55.5t-52.5 153.5z" />
<glyph unicode="&#x2026;" horiz-adv-x="1011" d="M119 90q0 43 30.5 74t73.5 31q44 0 74.5 -31t30.5 -74q0 -44 -30.5 -74t-74.5 -30q-43 0 -73.5 30t-30.5 74zM401 90q0 43 31 74t74 31q44 0 75 -31t31 -74q0 -44 -31 -74t-75 -30q-43 0 -74 30t-31 74zM684 90q0 43 30 74t74 31q43 0 74 -31t31 -74q0 -44 -31 -74 t-74 -30q-44 0 -74 30t-30 74z" />
<glyph unicode="&#x202f;" horiz-adv-x="328" />
<glyph unicode="&#x205f;" horiz-adv-x="410" />
<glyph unicode="&#x20ac;" horiz-adv-x="1398" d="M57 479v137h191q-2 25 -2 80v45h-189v138h201q42 270 207 406t424 136q66 0 128.5 -10.5t99.5 -21t83 -33t57 -29t43 -27.5l-88 -129q-131 95 -317 95q-180 0 -299 -94t-156 -293h586v-138h-600v-47q0 -53 2 -78h514v-137h-493q80 -338 450 -338q191 0 318 92l86 -131 q-176 -116 -414 -116q-249 0 -412 123.5t-213 369.5h-207z" />
<glyph unicode="&#x2122;" horiz-adv-x="2240" d="M125 1219v251h805v-251h-99v141h-235v-660h109v-108h-353v108h113v660h-242v-141h-98zM1018 592v108h106l35 660h-106v110h270l195 -479l51 -147h2q28 90 53 147l197 479h266v-110h-105l33 -660h107v-108h-326v108h94l-35 588h-2l-247 -612h-76l-244 612h-2l-35 -588h92 v-108h-323z" />
<glyph unicode="&#x25fc;" horiz-adv-x="952" d="M0 0v952h952v-952h-952z" />
</font>
</defs>
</svg>
